<svg version="1.2" xmlns="http://www.w3.org/2000/svg" viewBox="0 0 512 512" width="512" height="512">
	<title>1454633691655813057-svg</title>
	<style>
		.s0 { fill: #ffffff;stroke: #231f20;stroke-width: 7.8 } 
		.s1 { fill: #f7941d;stroke: #231f20;stroke-width: 7.8 } 
		.s2 { fill: #d1d3d4;stroke: #231f20;stroke-width: 7.8 } 
	</style>
	<path id="Layer" class="s0" d="m184.1 454.8h-37c-18.5 0-33.7-7-33.7-15.6v-278.1q0.1-5.4 1.4-10.8 1.3-5.3 3.8-10.5 2.5-5.2 6.1-10.1 3.6-5 8.3-9.5l32.6-32.5 52.1 51.9v299.6c0 8.6-15.1 15.6-33.6 15.6z"/>
	<path id="Layer" class="s1" d="m256.1 454.8c-5 0-10-0.6-14.6-1.9-4.7-1.2-8.9-3-12.5-5.2-3.5-2.3-6.4-4.9-8.3-7.8-1.9-3-2.9-6.1-3-9.3v-330.7q0-7.9 1.3-15.8 1.2-7.9 3.6-15.7 2.4-7.8 6-15.4 3.6-7.5 8.3-14.9l19.3-29.8 19.2 29.8q4.8 7.3 8.4 14.9 3.6 7.6 6 15.4 2.4 7.8 3.6 15.7 1.2 7.9 1.2 15.8v330.7c0 3.2-1 6.3-2.9 9.3-2 2.9-4.8 5.6-8.4 7.8-3.6 2.3-7.8 4-12.5 5.3-4.6 1.2-9.6 1.8-14.7 1.8z"/>
	<path id="Layer" class="s0" d="m365.2 454.8h-37c-18.5 0-33.6-7-33.6-15.6v-299.6l52.1-51.9 32.6 32.5q4.7 4.5 8.3 9.4 3.6 5 6.1 10.1 2.5 5.2 3.7 10.6 1.3 5.3 1.4 10.7v278.2c0 8.6-15.1 15.6-33.6 15.6z"/>
	<path id="Layer" class="s0" d="m294.6 348.2l28.6 7.9c18.3 5.1 35.9 11 52.7 17.7 16.8 6.7 32.8 14.2 47.9 22.4 15.1 8.2 29.2 17.1 42.1 26.6 13 9.5 24.9 19.7 35.5 30.3l1.7 1.7h-208.5z"/>
	<path id="Layer" class="s0" d="m217.7 454.8h-208.5l8.4-7.8c10.2-9.6 21.5-18.8 33.8-27.4 12.2-8.6 25.4-16.7 39.4-24.2 14-7.5 28.8-14.4 44.2-20.6 15.5-6.3 31.7-11.8 48.4-16.7l34.3-9.9z"/>
	<path id="Layer" class="s2" d="m147.3 454.8h74.5v53.6h-74.5z"/>
	<path id="Layer" class="s2" d="m291.6 454.8h74.6v53.6h-74.6z"/>
	<path id="Layer" class="s0" d="m302 454.8h-88.4v-184.3c0-18.1 10.8-35.8 31.3-51.2l12.9-9.6 12.8 9.6c20.5 15.4 31.4 33.1 31.4 51.2z"/>
</svg>